<?xml version="1.0" encoding="UTF-8"?>
<svg version="1.1" xmlns="http://www.w3.org/2000/svg" width="180" height="160">
<path d="M0 0 C0.82884705 -0.00671722 1.65769409 -0.01343445 2.51165771 -0.02035522 C5.23024628 -0.0392283 7.94858646 -0.04325431 10.66723633 -0.04541016 C12.57522174 -0.05184664 14.48320618 -0.05857562 16.39118958 -0.06558228 C20.38467697 -0.07752919 24.37807804 -0.08126588 28.37158203 -0.08007812 C33.4574136 -0.07987535 38.54268381 -0.10714651 43.62838268 -0.14162254 C47.56895933 -0.16400078 51.50940335 -0.1679123 55.450037 -0.16685867 C57.32329551 -0.16919941 59.19655854 -0.17793552 61.06975365 -0.19352341 C77.34074301 -0.31622583 90.64023935 1.32416618 103.08520508 12.94677734 C111.58901846 22.09808921 114.24787953 33.29792925 114.49926758 45.54052734 C114.31176758 48.29052734 114.31176758 48.29052734 113.31176758 49.29052734 C109.38154933 49.57159182 105.43833647 49.52236449 101.49926758 49.54052734 C100.39260742 49.56115234 99.28594727 49.58177734 98.14575195 49.60302734 C97.0803418 49.60818359 96.01493164 49.61333984 94.91723633 49.61865234 C93.93907959 49.62799805 92.96092285 49.63734375 91.953125 49.64697266 C88.88942279 49.23353285 87.54281067 48.39173157 85.31176758 46.29052734 C84.58911133 44.42333984 84.58911133 44.42333984 84.24926758 42.41552734 C83.47315489 38.83093909 82.70345482 36.17704643 80.31176758 33.29052734 C75.30189997 30.70781195 71.19481902 29.8522776 65.54394531 29.90234375 C64.80153595 29.89708679 64.05912659 29.89182983 63.29421997 29.88641357 C60.86104766 29.87330149 58.42853929 29.88191904 55.99536133 29.89208984 C54.29337947 29.89006679 52.59139846 29.88715342 50.88941956 29.88339233 C47.331306 29.87898109 43.77341914 29.88536203 40.21533203 29.89941406 C35.66354837 29.91651838 31.11229497 29.90664942 26.56053066 29.88869667 C23.04913869 29.87783745 19.53787171 29.88131474 16.02647591 29.88908005 C14.34840901 29.89107547 12.67033061 29.88864597 10.99227715 29.88164139 C8.64461218 29.87399002 6.29779725 29.88568119 3.95019531 29.90234375 C3.26275742 29.89627106 2.57531952 29.89019836 1.86705017 29.88394165 C-3.76505548 29.95769249 -7.56330154 31.68247154 -12.00073242 35.04052734 C-15.91035751 40.25336079 -14.84878625 48.43039007 -14.85620117 54.68505859 C-14.85952957 55.67245529 -14.86285797 56.65985199 -14.86628723 57.6771698 C-14.87133176 59.75897763 -14.87369632 61.84079349 -14.87353516 63.92260742 C-14.87571824 67.0824945 -14.89389121 70.24203018 -14.9128418 73.40185547 C-14.91577704 75.43375533 -14.91776096 77.46565683 -14.91870117 79.49755859 C-14.92588669 80.43018021 -14.9330722 81.36280182 -14.94047546 82.32368469 C-15.21644398 93.28444943 -15.21644398 93.28444943 -10.47077942 102.53041077 C-7.3358485 104.51342988 -5.5465388 104.86475994 -1.86938477 105.02783203 C-0.7213739 105.0830603 0.42663696 105.13828857 1.60943604 105.19519043 C8.14420955 105.36346416 14.67357061 105.47628144 21.21020508 105.49365234 C21.93976032 105.49647972 22.66931557 105.4993071 23.42097855 105.50222015 C27.26755363 105.51705681 31.11409259 105.52638892 34.96069336 105.53076172 C38.91131352 105.53628392 42.86159559 105.56043411 46.81210899 105.58873367 C49.87656637 105.60739429 52.94094182 105.61256704 56.0054512 105.6140976 C57.46221428 105.61710709 58.9189765 105.62507748 60.37568283 105.63828278 C70.78935316 105.88500047 70.78935316 105.88500047 80.31176758 102.29052734 C81.85382213 100.77503666 81.85382213 100.77503666 82.62426758 98.97802734 C82.92719727 98.36958984 83.23012695 97.76115234 83.54223633 97.13427734 C84.61339854 94.56783793 85.45121179 91.93366298 86.31176758 89.29052734 C89.80507297 85.79722195 95.00093036 86.71841067 99.74926758 86.54052734 C100.81209961 86.48509766 101.87493164 86.42966797 102.9699707 86.37255859 C103.98897461 86.33001953 105.00797852 86.28748047 106.05786133 86.24365234 C107.46056274 86.18419434 107.46056274 86.18419434 108.89160156 86.12353516 C111.31176758 86.29052734 111.31176758 86.29052734 114.31176758 88.29052734 C114.48005399 90.90967584 114.4612081 93.19639898 114.24926758 95.79052734 C114.19472412 96.51304688 114.14018066 97.23556641 114.08398438 97.97998047 C113.0121597 109.58212615 107.92729551 118.19927508 99.43676758 126.04052734 C87.09089382 136.28596889 72.53670461 135.60485017 57.28442383 135.59130859 C55.44559128 135.5952044 53.60675961 135.59954086 51.76792908 135.60429382 C47.9294034 135.61171929 44.09096976 135.61149125 40.25244141 135.60620117 C35.36285724 135.60040674 30.4736519 135.61735494 25.58413029 135.64054585 C21.79115135 135.65536142 17.99826207 135.65614438 14.20525932 135.65303612 C12.40375454 135.65354525 10.6022442 135.65870516 8.8007679 135.66884804 C-6.31614988 135.74354204 -20.7149208 134.92364948 -32.37573242 124.10302734 C-43.25600839 112.3896908 -45.15988446 99.17827169 -45.08666992 83.68896484 C-45.08869815 82.31759487 -45.09161576 80.94622596 -45.09536743 79.57485962 C-45.09975271 76.72248915 -45.09348216 73.87040338 -45.0793457 71.01806641 C-45.06222291 67.3893598 -45.07213822 63.76131767 -45.0900631 60.13263512 C-45.10097691 57.3082084 -45.09742067 54.48393564 -45.08967972 51.65950394 C-45.08674919 49.68001108 -45.09574488 47.70051187 -45.10507202 45.72103882 C-45.00815829 33.19935087 -42.27129517 22.49154042 -33.64916992 13.06005859 C-24.02927048 4.00103668 -13.08201052 -0.01551319 0 0 Z " fill="#F2680D" transform="translate(55.688232421875,12.70947265625)"/>
<path d="M0 0 C0.99 0.33 1.98 0.66 3 1 C2.01 2.485 2.01 2.485 1 4 C3.31 4 5.62 4 8 4 C8 5.98 8 7.96 8 10 C8.66 10 9.32 10 10 10 C10 10.99 10 11.98 10 13 C10.99 13 11.98 13 13 13 C13.12375 12.21625 13.2475 11.4325 13.375 10.625 C14 8 14 8 16 6 C27.33333333 6 38.66666667 6 50 6 C50.495 7.485 50.495 7.485 51 9 C50 10 50 10 46.40234375 10.09765625 C44.91403133 10.0909822 43.42573568 10.07902183 41.9375 10.0625 C40.79958008 10.05573242 40.79958008 10.05573242 39.63867188 10.04882812 C37.75908129 10.0370068 35.87953101 10.01907078 34 10 C34 10.66 34 11.32 34 12 C34.99 12.33 35.98 12.66 37 13 C35.98679688 13.10957031 34.97359375 13.21914063 33.9296875 13.33203125 C32.57805539 13.49159893 31.22649657 13.65178833 29.875 13.8125 C29.20984375 13.88275391 28.5446875 13.95300781 27.859375 14.02539062 C22.2962429 14.70714701 18.14167026 16.37927656 13.6875 19.75 C11.44223295 22.7436894 11.28287366 25.3226424 11 29 C10.67 29 10.34 29 10 29 C9.67 36.59 9.34 44.18 9 52 C8.67 52 8.34 52 8 52 C8 40.12 8 28.24 8 16 C7.01 16.33 6.02 16.66 5 17 C4.67 40.43 4.34 63.86 4 88 C3.34 88 2.68 88 2 88 C2 89.98 2 91.96 2 94 C2.66 94 3.32 94 4 94 C3.855625 94.680625 3.71125 95.36125 3.5625 96.0625 C2.93054091 99.36273082 2.45686059 102.67144426 2 106 C1.34 106 0.68 106 0 106 C0.85655286 108.22032213 0.85655286 108.22032213 3.3125 109.125 C6.16285516 110.2063907 6.16285516 110.2063907 10 110 C9.67 111.65 9.34 113.3 9 115 C6.5625 115.9375 6.5625 115.9375 3 116 C-2.84576298 112.6759387 -8.23835981 107.59082993 -12 102 C-12 101.34 -12 100.68 -12 100 C-11.34 100 -10.68 100 -10 100 C-9.67 100.66 -9.34 101.32 -9 102 C-8.34 100.02 -7.68 98.04 -7 96 C-8.485 96.495 -8.485 96.495 -10 97 C-10.33 96.34 -10.66 95.68 -11 95 C-11.99 94.34 -12.98 93.68 -14 93 C-16.70177272 78.17466354 -14.89541241 61.91097057 -14.5625 46.9375 C-14.50915419 44.31706967 -14.45641516 41.69662691 -14.40429688 39.07617188 C-14.27652204 32.71728781 -14.1412743 26.35859773 -14 20 C-13.34 20 -12.68 20 -12 20 C-12 19.34 -12 18.68 -12 18 C-12.66 17.67 -13.32 17.34 -14 17 C-13.8125 14.125 -13.8125 14.125 -13 11 C-10.625 9.9375 -10.625 9.9375 -8 9 C-6.97695052 7.34738161 -5.97383946 5.68208635 -5 4 C-4.01 4 -3.02 4 -2 4 C-2 3.34 -2 2.68 -2 2 C-1.34 2 -0.68 2 0 2 C0 1.34 0 0.68 0 0 Z " fill="#F36B0B" transform="translate(30,28)"/>
<path d="M0 0 C2.12271196 1.04822275 4.20748375 2.17478913 6.26171875 3.3515625 C7.14776543 3.85724258 7.14776543 3.85724258 8.05171204 4.37313843 C9.29999656 5.08768058 10.54631797 5.80566188 11.79077148 6.52685547 C13.65959554 7.60884422 15.53515821 8.67827975 17.41210938 9.74609375 C36.41920248 20.62880373 36.41920248 20.62880373 40 26 C40 28.375 40 28.375 39 31 C34.5793009 35.06704317 29.76400388 38.16781966 24.625 41.25 C23.84350586 41.72091064 23.06201172 42.19182129 22.25683594 42.67700195 C19.84211146 44.12520349 17.42132186 45.56286326 15 47 C14.24106445 47.45616699 13.48212891 47.91233398 12.70019531 48.38232422 C10.55855977 49.6657066 8.40670055 50.92963687 6.25 52.1875 C5.28634521 52.76709473 5.28634521 52.76709473 4.30322266 53.35839844 C0.40874735 55.58880525 -2.52240867 56.8817603 -7 56 C-9.48193723 53.83269047 -10.82483798 52.04969319 -11.37408447 48.75822449 C-11.53018826 45.9549464 -11.55421898 43.17866534 -11.53125 40.37109375 C-11.5350769 39.34444107 -11.53890381 38.31778839 -11.54284668 37.26002502 C-11.54556388 35.09399431 -11.53821621 32.92793068 -11.52148438 30.76196289 C-11.50005095 27.44538375 -11.52130474 24.13096551 -11.546875 20.81445312 C-11.54423212 18.70832855 -11.53910797 16.60220532 -11.53125 14.49609375 C-11.53934692 13.50435654 -11.54744385 12.51261932 -11.55578613 11.49082947 C-11.46219459 4.6281849 -11.46219459 4.6281849 -9.09179688 1.40649414 C-5.50112672 -1.00782084 -4.19240437 -1.16992168 0 0 Z " fill="#343233" transform="translate(80,53)"/>
<path d="M0 0 C3.16796875 0.1484375 3.16796875 0.1484375 6.16796875 2.1484375 C6.33625516 4.767586 6.31740927 7.05430914 6.10546875 9.6484375 C6.05092529 10.37095703 5.99638184 11.09347656 5.94018555 11.83789062 C4.86836087 23.44003631 -0.21650332 32.05718524 -8.70703125 39.8984375 C-20.243878 49.47249369 -33.36814922 49.44988382 -47.78125 49.34375 C-49.29010326 49.34001083 -50.79895898 49.33716814 -52.30781555 49.33517456 C-56.24180027 49.32760912 -60.17563274 49.30802332 -64.10955811 49.2857666 C-68.13877301 49.26515367 -72.16801298 49.25614012 -76.19726562 49.24609375 C-84.07559 49.22476927 -91.95379158 49.1907212 -99.83203125 49.1484375 C-99.83203125 48.4884375 -99.83203125 47.8284375 -99.83203125 47.1484375 C-82.67203125 47.1484375 -65.51203125 47.1484375 -47.83203125 47.1484375 C-47.83203125 46.4884375 -47.83203125 45.8284375 -47.83203125 45.1484375 C-41.89203125 44.6534375 -41.89203125 44.6534375 -35.83203125 44.1484375 C-35.83203125 42.4984375 -35.83203125 40.8484375 -35.83203125 39.1484375 C-35.13078125 39.0865625 -34.42953125 39.0246875 -33.70703125 38.9609375 C-29.8298624 37.86521587 -27.69277167 35.94416109 -24.83203125 33.1484375 C-23.88766776 30.98312582 -23.88766776 30.98312582 -23.83203125 29.1484375 C-25.81203125 28.4884375 -27.79203125 27.8284375 -29.83203125 27.1484375 C-29.83203125 25.4984375 -29.83203125 23.8484375 -29.83203125 22.1484375 C-52.93203125 21.8184375 -76.03203125 21.4884375 -99.83203125 21.1484375 C-99.83203125 21.8084375 -99.83203125 22.4684375 -99.83203125 23.1484375 C-105.40270402 24.74005829 -110.04304706 25.35518694 -115.83203125 25.1484375 C-116.16203125 26.4684375 -116.49203125 27.7884375 -116.83203125 29.1484375 C-117.49203125 29.1484375 -118.15203125 29.1484375 -118.83203125 29.1484375 C-123.23977612 18.77486119 -123.23977612 18.77486119 -123.83203125 13.1484375 C-123.17203125 12.8184375 -122.51203125 12.4884375 -121.83203125 12.1484375 C-119.83203125 14.1484375 -117.83203125 16.1484375 -115.83203125 18.1484375 C-106.26320536 19.39055001 -96.5666513 19.32596295 -86.93359375 19.3515625 C-86.20403851 19.35438988 -85.47448326 19.35721725 -84.72282028 19.36013031 C-80.8762452 19.37496696 -77.02970624 19.38429908 -73.18310547 19.38867188 C-69.23248531 19.39419407 -65.28220324 19.41834427 -61.33168983 19.44664383 C-58.26723246 19.46530445 -55.20285701 19.4704772 -52.13834763 19.47200775 C-50.68158455 19.47501724 -49.22482233 19.48298764 -47.768116 19.49619293 C-37.35444567 19.74291062 -37.35444567 19.74291062 -27.83203125 16.1484375 C-26.2899767 14.63294682 -26.2899767 14.63294682 -25.51953125 12.8359375 C-25.21660156 12.2275 -24.91367188 11.6190625 -24.6015625 10.9921875 C-23.53040029 8.42574809 -22.69258704 5.79157313 -21.83203125 3.1484375 C-18.97225709 0.28866334 -15.98669805 0.68973507 -12.14453125 0.5234375 C-11.44908203 0.48476562 -10.75363281 0.44609375 -10.03710938 0.40625 C-6.69305537 0.2313975 -3.34608856 0.12961403 0 0 Z " fill="#EA5817" transform="translate(163.83203125,98.8515625)"/>
<path d="M0 0 C7.22399395 5.15999568 11.69424733 12.43873001 14 21 C14.37743348 23.93330698 14.54903034 26.85931987 14.6875 29.8125 C14.73455078 30.58787109 14.78160156 31.36324219 14.83007812 32.16210938 C14.93382729 34.10613056 14.97258317 36.05340539 15 38 C12.46959509 40.53040491 5.58730858 39.23432365 2.1875 39.25 C1.08083984 39.270625 -0.02582031 39.29125 -1.16601562 39.3125 C-2.76413086 39.32023437 -2.76413086 39.32023437 -4.39453125 39.328125 C-5.86176636 39.34214355 -5.86176636 39.34214355 -7.35864258 39.35644531 C-10.42234479 38.94300551 -11.76895691 38.10120422 -14 36 C-14.72265625 34.1328125 -14.72265625 34.1328125 -15.0625 32.125 C-15.84821699 28.51994559 -16.58434269 25.89878878 -19 23 C-21.5776098 21.44322577 -24.23080057 20.17740308 -27 19 C-27 17.68 -27 16.36 -27 15 C-25.68 15 -24.36 15 -23 15 C-23 13.68 -23 12.36 -23 11 C-23.66 11 -24.32 11 -25 11 C-25 10.34 -25 9.68 -25 9 C-19.35174402 7.77875546 -14.67347072 8.25593827 -9 9 C-9 8.34 -9 7.68 -9 7 C-5.16774573 6.91087781 -1.73437848 7.12132271 2 8 C2.43386092 4.12202338 2.43386092 4.12202338 0.5 2.25 C0.005 1.8375 -0.49 1.425 -1 1 C-0.67 0.67 -0.34 0.34 0 0 Z " fill="#F15A13" transform="translate(155,23)"/>
<path d="M0 0 C0.99 0 1.98 0 3 0 C3.33 3.3 3.66 6.6 4 10 C4.33 10 4.66 10 5 10 C5.00364563 10.73978592 5.00729126 11.47957184 5.01104736 12.24177551 C5.04911971 19.25821996 5.10618734 26.27420365 5.18390274 33.29030323 C5.2231936 36.89627046 5.25547094 40.50200023 5.27099609 44.1081543 C5.28628566 47.59683452 5.32094319 51.08486107 5.36830902 54.57324791 C5.39008221 56.53317134 5.39246311 58.4932799 5.39434814 60.45332336 C5.50940945 67.57475434 6.37065187 73.32063868 9.14642334 79.90531921 C10 82 10 82 10 84 C10.66 84 11.32 84 12 84 C16 89.41176471 16 89.41176471 16 92 C16.66 92 17.32 92 18 92 C19.33203125 93.49609375 19.33203125 93.49609375 20.8125 95.4375 C22.9101844 97.9938918 23.65584747 98.88777635 26.875 99.9375 C27.57625 99.958125 28.2775 99.97875 29 100 C29 101.32 29 102.64 29 104 C19.36212018 104.33023192 10.18819678 104.46544446 1 101 C0.34 100.34 -0.32 99.68 -1 99 C0.65 99 2.3 99 4 99 C4 97.68 4 96.36 4 95 C3.2575 94.855625 2.515 94.71125 1.75 94.5625 C-0.52027739 94.09812508 -2.75759479 93.58136431 -5 93 C-5 92.01 -5 91.02 -5 90 C-4.34 90 -3.68 90 -3 90 C-3.04125 88.948125 -3.0825 87.89625 -3.125 86.8125 C-3.00852125 83.25989827 -2.52791932 81.15133359 -1 78 C-1.66 78 -2.32 78 -3 78 C-3 76.02 -3 74.04 -3 72 C-2.34 72 -1.68 72 -1 72 C-1.00222061 71.1127272 -1.00444122 70.22545441 -1.00672913 69.31129456 C-1.02672961 60.96755343 -1.04197289 52.62382031 -1.05181217 44.28006077 C-1.05704061 39.99000085 -1.06413753 35.69996067 -1.07543945 31.40991211 C-1.08626975 27.273206 -1.09227714 23.13651892 -1.09487724 18.99979973 C-1.09673124 17.41807696 -1.10035136 15.83635529 -1.10573006 14.25464058 C-1.1129424 12.04677162 -1.11399086 9.83898227 -1.11352539 7.63110352 C-1.115746 6.37201675 -1.11796661 5.11292999 -1.12025452 3.81568909 C-1 1 -1 1 0 0 Z " fill="#EA5E0D" transform="translate(35,44)"/>
<path d="M0 0 C-0.66 2.64 -1.32 5.28 -2 8 C-2.66 8 -3.32 8 -4 8 C-4 8.66 -4 9.32 -4 10 C-4.99 10.33 -5.98 10.66 -7 11 C-7.45375 11.78375 -7.9075 12.5675 -8.375 13.375 C-10.22088735 16.35681803 -11.91894701 17.41783765 -15 19 C-14.67 21.31 -14.34 23.62 -14 26 C-14.66 26 -15.32 26 -16 26 C-16.02325991 34.18912364 -16.04098426 42.37823326 -16.05181217 50.56738186 C-16.0570113 54.37069816 -16.06405447 58.17399171 -16.07543945 61.97729492 C-16.08637456 65.65368432 -16.09229916 69.33005196 -16.09487724 73.00645638 C-16.09671247 74.40293787 -16.10029586 75.7994183 -16.10573006 77.19589043 C-16.28712006 88.15859568 -16.28712006 88.15859568 -15 99 C-13.10770238 100.2230762 -13.10770238 100.2230762 -11 101 C-10.34 101.33 -9.68 101.66 -9 102 C-9.33 104.31 -9.66 106.62 -10 109 C-10.66 108.67 -11.32 108.34 -12 108 C-12 107.34 -12 106.68 -12 106 C-13.485 106.495 -13.485 106.495 -15 107 C-20.85939911 96.4530816 -21.30917519 86.5211204 -21.30078125 74.59375 C-21.30467967 73.21952182 -21.30901665 71.84529483 -21.31376648 70.47106934 C-21.32117939 67.60681226 -21.32097289 64.74267857 -21.31567383 61.87841797 C-21.3098753 58.23399221 -21.32684307 54.59007405 -21.3500185 50.94573212 C-21.3648479 48.11274333 -21.36561532 45.27987437 -21.36250877 42.44685364 C-21.36326148 40.45848343 -21.3770498 38.4701316 -21.39118958 36.48181152 C-21.34575766 27.52294586 -20.44709683 19.08105468 -15.5 11.375 C-15.0978125 10.72273438 -14.695625 10.07046875 -14.28125 9.3984375 C-13.8584375 8.93695313 -13.435625 8.47546875 -13 8 C-12.01 8 -11.02 8 -10 8 C-10 7.34 -10 6.68 -10 6 C-9.34 6 -8.68 6 -8 6 C-8 5.34 -8 4.68 -8 4 C-7.34 4 -6.68 4 -6 4 C-6 3.34 -6 2.68 -6 2 C-3 0 -3 0 0 0 Z " fill="#F3791B" transform="translate(32,22)"/>
<path d="M0 0 C1 1 1 1 1.09765625 3.28515625 C1.08025391 4.65994141 1.08025391 4.65994141 1.0625 6.0625 C1.05347656 6.98160156 1.04445312 7.90070313 1.03515625 8.84765625 C1.01775391 9.91306641 1.01775391 9.91306641 1 11 C-1.64 11 -4.28 11 -7 11 C-7 10.34 -7 9.68 -7 9 C-8.43791516 9.14168137 -9.8753237 9.28851043 -11.3125 9.4375 C-12.11300781 9.51871094 -12.91351563 9.59992188 -13.73828125 9.68359375 C-16.16087179 9.95265693 -16.16087179 9.95265693 -19 11 C-19.33 11.66 -19.66 12.32 -20 13 C-20 12.34 -20 11.68 -20 11 C-20.99 11 -21.98 11 -23 11 C-23 13.64 -23 16.28 -23 19 C-24.32 19 -25.64 19 -27 19 C-27.5968158 19.32531708 -28.19363159 19.65063416 -28.80853271 19.98580933 C-31.93889637 21.4345125 -34.62397484 21.23907701 -38.06347656 21.22705078 C-39.11773834 21.22748886 -39.11773834 21.22748886 -40.19329834 21.22793579 C-42.50920084 21.22654592 -44.82477892 21.21100113 -47.140625 21.1953125 C-48.74916406 21.19158115 -50.35770541 21.18873475 -51.96624756 21.18673706 C-56.19460351 21.17911023 -60.4228215 21.15946994 -64.65112305 21.1373291 C-68.96791722 21.11685018 -73.28473373 21.10773097 -77.6015625 21.09765625 C-86.06777156 21.07622312 -94.5338686 21.04209868 -103 21 C-103 21.66 -103 22.32 -103 23 C-108.57067277 24.59162079 -113.21101581 25.20674944 -119 25 C-119.33 26.32 -119.66 27.64 -120 29 C-120.66 29 -121.32 29 -122 29 C-126.40774487 18.62642369 -126.40774487 18.62642369 -127 13 C-126.34 12.67 -125.68 12.34 -125 12 C-123 14 -121 16 -119 18 C-109.43117411 19.24211251 -99.73462005 19.17752545 -90.1015625 19.203125 C-89.37200726 19.20595238 -88.64245201 19.20877975 -87.89078903 19.21169281 C-84.04421395 19.22652946 -80.19767499 19.23586158 -76.35107422 19.24023438 C-72.40045406 19.24575657 -68.45017199 19.26990677 -64.49965858 19.29820633 C-61.43520121 19.31686695 -58.37082576 19.3220397 -55.30631638 19.32357025 C-53.8495533 19.32657974 -52.39279108 19.33455014 -50.93608475 19.34775543 C-40.52241442 19.59447312 -40.52241442 19.59447312 -31 16 C-29.45794545 14.48450932 -29.45794545 14.48450932 -28.6875 12.6875 C-28.38457031 12.0790625 -28.08164063 11.470625 -27.76953125 10.84375 C-26.69836904 8.27731059 -25.86055579 5.64313563 -25 3 C-22.14022584 0.14022584 -19.1546668 0.54129757 -15.3125 0.375 C-14.61705078 0.33632812 -13.92160156 0.29765625 -13.20507812 0.2578125 C-8.80300768 0.02763888 -4.40801056 -0.1244881 0 0 Z " fill="#EF5C21" transform="translate(167,99)"/>
<path d="M0 0 C0 0.66 0 1.32 0 2 C1.32 2 2.64 2 4 2 C4 2.66 4 3.32 4 4 C6.97 3.505 6.97 3.505 10 3 C10 2.34 10 1.68 10 1 C12.97 0.505 12.97 0.505 16 0 C14.55922954 3.36179774 12.75249979 5.59156268 10 8 C9.34 8 8.68 8 8 8 C8 8.66 8 9.32 8 10 C6.50390625 11.21875 6.50390625 11.21875 4.5625 12.5 C1.77468153 14.2865363 1.77468153 14.2865363 0 17 C-9.40175909 20.89829035 -19.68036885 20.1339847 -29.65625 20.09765625 C-31.16939243 20.0957883 -32.68253546 20.09436618 -34.19567871 20.09336853 C-38.15431423 20.08957306 -42.11291234 20.07976854 -46.0715332 20.06866455 C-50.12060032 20.05838618 -54.16967356 20.05385721 -58.21875 20.04882812 C-66.14585039 20.03814326 -74.07292053 20.02110302 -82 20 C-82 19.34 -82 18.68 -82 18 C-64.84 18 -47.68 18 -30 18 C-30 17.34 -30 16.68 -30 16 C-24.06 15.505 -24.06 15.505 -18 15 C-18 13.35 -18 11.7 -18 10 C-17.29875 9.938125 -16.5975 9.87625 -15.875 9.8125 C-11.15592593 8.47884863 -8.12465107 5.18891685 -4.8125 1.6875 C-3 0 -3 0 0 0 Z " fill="#E5641B" transform="translate(146,128)"/>
<path d="M0 0 C2.8125 1.5625 2.8125 1.5625 5 3 C1.23375329 4.25541557 -0.37188934 3.37061958 -4 2 C-7.77264868 5.35296253 -8.45631757 9.12776897 -9 14 C-9.08691422 19.03318811 -8.87273655 24.03592542 -8.625 29.0625 C-8.56662543 30.41857361 -8.50932557 31.77469393 -8.453125 33.13085938 C-8.31261281 36.42118641 -8.16129639 39.71063736 -8 43 C-7.97421875 42.01257813 -7.9484375 41.02515625 -7.921875 40.0078125 C-7.86515625 38.72648437 -7.8084375 37.44515625 -7.75 36.125 C-7.70359375 34.84882812 -7.6571875 33.57265625 -7.609375 32.2578125 C-7 29 -7 29 -4.953125 27.5546875 C-4.30859375 27.37164062 -3.6640625 27.18859375 -3 27 C-1 29 -1 29 -0.9375 31.5 C-0.958125 32.325 -0.97875 33.15 -1 34 C-0.67 34.66 -0.34 35.32 0 36 C-0.33 36.99 -0.66 37.98 -1 39 C-0.34 39.33 0.32 39.66 1 40 C1 40.99 1 41.98 1 43 C2.98 43 4.96 43 7 43 C7 43.66 7 44.32 7 45 C6.34 45 5.68 45 5 45 C5 45.66 5 46.32 5 47 C3.02 47.495 3.02 47.495 1 48 C1.33 49.32 1.66 50.64 2 52 C3.65 51.34 5.3 50.68 7 50 C7 49.34 7 48.68 7 48 C9.28703308 46.80274117 11.57884862 45.61702982 13.875 44.4375 C14.85146484 43.92413086 14.85146484 43.92413086 15.84765625 43.40039062 C17.53529857 42.53917109 19.26579593 41.76313297 21 41 C21.99 41.495 21.99 41.495 23 42 C16.74186404 45.92004065 10.46259994 49.81509398 4.0625 53.5 C3.22847656 53.9846875 2.39445312 54.469375 1.53515625 54.96875 C-1.61839157 56.25154911 -3.62843116 56.5387327 -7 56 C-9.49392909 53.83682022 -10.82426543 52.05478068 -11.37355042 48.75790405 C-11.53025114 45.95468928 -11.55421872 43.17863424 -11.53125 40.37109375 C-11.5350769 39.34444107 -11.53890381 38.31778839 -11.54284668 37.26002502 C-11.54556388 35.09399431 -11.53821621 32.92793068 -11.52148438 30.76196289 C-11.50005095 27.44538375 -11.52130474 24.13096551 -11.546875 20.81445312 C-11.54423212 18.70832855 -11.53910797 16.60220532 -11.53125 14.49609375 C-11.53934692 13.50435654 -11.54744385 12.51261932 -11.55578613 11.49082947 C-11.46219459 4.6281849 -11.46219459 4.6281849 -9.09179688 1.40649414 C-5.51642173 -0.9975367 -4.17430413 -1.16492208 0 0 Z " fill="#252221" transform="translate(80,53)"/>
<path d="M0 0 C2.61585942 0.10258272 4.7068362 0.36171883 7.1875 1.125 C7.1875 1.785 7.1875 2.445 7.1875 3.125 C6.01784207 4.16997358 4.79981908 5.161096 3.5625 6.125 C-2.51323106 11.2742898 -6.00559109 17.753585 -8.8125 25.125 C-9.8025 25.125 -10.7925 25.125 -11.8125 25.125 C-11.8125 24.135 -11.8125 23.145 -11.8125 22.125 C-12.4725 22.125 -13.1325 22.125 -13.8125 22.125 C-14.1425 20.475 -14.4725 18.825 -14.8125 17.125 C-16.7925 16.795 -18.7725 16.465 -20.8125 16.125 C-20.4825 15.135 -20.1525 14.145 -19.8125 13.125 C-20.4725 12.465 -21.1325 11.805 -21.8125 11.125 C-21.3125 8.8125 -21.3125 8.8125 -19.8125 6.125 C-14.63682501 3.71563406 -9.33931943 2.48246442 -3.8125 1.125 C-2.8125 0.125 -2.8125 0.125 0 0 Z " fill="#EE5F11" transform="translate(51.8125,15.875)"/>
<path d="M0 0 C34.62293487 -0.967225 34.62293487 -0.967225 48 9 C48 9.66 48 10.32 48 11 C47.01 11 46.02 11 45 11 C45 10.34 45 9.68 45 9 C42.03 8.67 39.06 8.34 36 8 C36 8.66 36 9.32 36 10 C33.9367016 9.93958131 31.87422586 9.85068362 29.8125 9.75 C28.66394531 9.70359375 27.51539063 9.6571875 26.33203125 9.609375 C23 9 23 9 20.625 7 C16.91902209 4.17639778 13.7304857 4.33377677 9.1875 4.25 C8.39923828 4.22035156 7.61097656 4.19070312 6.79882812 4.16015625 C4.86642554 4.08988707 2.93320985 4.04262866 1 4 C2.32 3.67 3.64 3.34 5 3 C5 2.34 5 1.68 5 1 C3.35 1 1.7 1 0 1 C0 0.67 0 0.34 0 0 Z " fill="#EB711A" transform="translate(107,13)"/>
<path d="M0 0 C11.66666667 0 23.33333333 0 35 0 C35.495 1.485 35.495 1.485 36 3 C35 4 35 4 31.40234375 4.09765625 C29.91403133 4.0909822 28.42573568 4.07902183 26.9375 4.0625 C26.17888672 4.05798828 25.42027344 4.05347656 24.63867188 4.04882812 C22.75908129 4.0370068 20.87953101 4.01907078 19 4 C19 4.66 19 5.32 19 6 C19.99 6.33 20.98 6.66 22 7 C21.38479492 7.05534912 20.76958984 7.11069824 20.13574219 7.16772461 C17.34019004 7.42107482 14.54510238 7.67923694 11.75 7.9375 C10.78191406 8.02451172 9.81382813 8.11152344 8.81640625 8.20117188 C7.88183594 8.28818359 6.94726562 8.37519531 5.984375 8.46484375 C5.12553711 8.543396 4.26669922 8.62194824 3.38183594 8.70288086 C1.18358411 8.97709903 -0.86718545 9.41066966 -3 10 C-2.49287967 6.28111761 -1.88391785 3.26545761 0 0 Z " fill="#F1810F" transform="translate(45,34)"/>
<path d="M0 0 C7.22399395 5.15999568 11.69424733 12.43873001 14 21 C14.37743348 23.93330698 14.54903034 26.85931987 14.6875 29.8125 C14.73455078 30.58787109 14.78160156 31.36324219 14.83007812 32.16210938 C14.93382729 34.10613056 14.97258317 36.05340539 15 38 C12.46959509 40.53040491 5.58730858 39.23432365 2.1875 39.25 C1.08083984 39.270625 -0.02582031 39.29125 -1.16601562 39.3125 C-2.76413086 39.32023437 -2.76413086 39.32023437 -4.39453125 39.328125 C-5.37268799 39.3374707 -6.35084473 39.34681641 -7.35864258 39.35644531 C-10.38937615 38.94745455 -11.7500428 38.01786897 -14 36 C-13.34 34.35 -12.68 32.7 -12 31 C-11.67 31.66 -11.34 32.32 -11 33 C-10.01 33 -9.02 33 -8 33 C-7.67 32.34 -7.34 31.68 -7 31 C-7 31.66 -7 32.32 -7 33 C-0.4 33 6.2 33 13 33 C12.49506059 25.9308483 11.27002693 19.71014249 9 13 C8.34 13 7.68 13 7 13 C7 11.68 7 10.36 7 9 C6.34 9 5.68 9 5 9 C3.6273318 7.02678947 2.29572383 5.02456848 1 3 C0.34 2.34 -0.32 1.68 -1 1 C-0.67 0.67 -0.34 0.34 0 0 Z " fill="#EA5F2D" transform="translate(155,23)"/>
<path d="M0 0 C11.88 0 23.76 0 36 0 C35.67 0.66 35.34 1.32 35 2 C25.1 2.33 15.2 2.66 5 3 C12.92 3.33 20.84 3.66 29 4 C29 4.66 29 5.32 29 6 C7.88 6 -13.24 6 -35 6 C-34.67 5.34 -34.34 4.68 -34 4 C-17.17 3.01 -17.17 3.01 0 2 C0 1.34 0 0.68 0 0 Z " fill="#E66A16" transform="translate(99,120)"/>
<path d="M0 0 C0.886875 0.969375 1.77375 1.93875 2.6875 2.9375 C6.03306832 5.78438942 8.37130639 6.43585353 12.7331543 6.67163086 C14.46461197 6.76732864 14.46461197 6.76732864 16.23104858 6.86495972 C23.01510893 7.10803036 29.79455169 7.2393295 36.58203125 7.31640625 C38.13287327 7.33703803 39.68371046 7.35803581 41.23454285 7.37937927 C45.27031482 7.43395872 49.30613196 7.48364422 53.34197998 7.53222656 C57.47867744 7.58291713 61.61531121 7.63835213 65.75195312 7.69335938 C73.8345812 7.80015361 81.91726338 7.90176538 90 8 C90 8.33 90 8.66 90 9 C67.89 9 45.78 9 23 9 C23 9.66 23 10.32 23 11 C17.42932723 12.59162079 12.78898419 13.20674944 7 13 C6.67 14.32 6.34 15.64 6 17 C5.34 17 4.68 17 4 17 C-0.60244648 6.16819572 -0.60244648 6.16819572 -1 1 C-0.67 0.67 -0.34 0.34 0 0 Z " fill="#DE8A36" transform="translate(41,111)"/>
<path d="M0 0 C-0.66 2.64 -1.32 5.28 -2 8 C-2.66 8 -3.32 8 -4 8 C-4 8.66 -4 9.32 -4 10 C-4.99 10.33 -5.98 10.66 -7 11 C-7.474375 11.804375 -7.94875 12.60875 -8.4375 13.4375 C-10.09552981 16.15666889 -11.08436939 16.89407115 -14 18 C-13.67 17.01 -13.34 16.02 -13 15 C-13.66 15 -14.32 15 -15 15 C-15.48509793 16.37291868 -15.96275513 17.74846703 -16.4375 19.125 C-16.70433594 19.89070313 -16.97117187 20.65640625 -17.24609375 21.4453125 C-19.20253869 28.07492385 -19.20857955 34.66690677 -19.31640625 41.5234375 C-19.33718735 42.62475006 -19.35796844 43.72606262 -19.37937927 44.86074829 C-19.4445619 48.36543773 -19.50361397 51.87019966 -19.5625 55.375 C-19.60571498 57.7565178 -19.64933022 60.13802837 -19.69335938 62.51953125 C-19.80021112 68.3462784 -19.90203467 74.17309703 -20 80 C-20.33 80 -20.66 80 -21 80 C-21.07643488 72.49274257 -21.12876094 64.98558654 -21.16479492 57.47802734 C-21.17982636 54.92720794 -21.20025705 52.37641415 -21.22631836 49.82568359 C-21.26294972 46.14674537 -21.27978346 42.46815065 -21.29296875 38.7890625 C-21.30845261 37.65949127 -21.32393646 36.52992004 -21.33988953 35.36611938 C-21.34168031 26.82790752 -20.20348064 18.70157562 -15.5 11.375 C-15.0978125 10.72273438 -14.695625 10.07046875 -14.28125 9.3984375 C-13.8584375 8.93695313 -13.435625 8.47546875 -13 8 C-12.01 8 -11.02 8 -10 8 C-10 7.34 -10 6.68 -10 6 C-9.34 6 -8.68 6 -8 6 C-8 5.34 -8 4.68 -8 4 C-7.34 4 -6.68 4 -6 4 C-6 3.34 -6 2.68 -6 2 C-3 0 -3 0 0 0 Z " fill="#EA8B3E" transform="translate(32,22)"/>
<path d="M0 0 C3.3 0 6.6 0 10 0 C12.10979399 6.32938196 13.36985948 11.34252941 13 18 C12.38125 17.79375 11.7625 17.5875 11.125 17.375 C10.42375 17.25125 9.7225 17.1275 9 17 C8.34 17.66 7.68 18.32 7 19 C6.608125 17.783125 6.21625 16.56625 5.8125 15.3125 C3.8844798 10.19826802 1.20958071 7.03113767 -3.8125 4.6875 C-4.534375 4.460625 -5.25625 4.23375 -6 4 C-6 3.34 -6 2.68 -6 2 C-4.02 2 -2.04 2 0 2 C0 1.34 0 0.68 0 0 Z " fill="#E95122" transform="translate(134,38)"/>
<path d="M0 0 C11.55 0 23.1 0 35 0 C35 0.66 35 1.32 35 2 C31.55439403 3.14853532 28.59019759 3.29478625 24.9609375 3.5 C23.56249963 3.5833272 22.16406215 3.66666072 20.765625 3.75 C18.56224318 3.87624569 16.35877786 4.00091352 14.15527344 4.125 C12.02775294 4.24619387 9.90061161 4.37289349 7.7734375 4.5 C6.49903809 4.5721875 5.22463867 4.644375 3.91162109 4.71875 C1.11012472 4.67792735 1.11012472 4.67792735 0 6 C-2.69654854 6.07319621 -5.36691458 6.09242537 -8.0625 6.0625 C-8.82111328 6.05798828 -9.57972656 6.05347656 -10.36132812 6.04882812 C-12.24091871 6.0370068 -14.12046899 6.01907078 -16 6 C-16 5.34 -16 4.68 -16 4 C-10.72 3.34 -5.44 2.68 0 2 C0 1.34 0 0.68 0 0 Z " fill="#F77A15" transform="translate(64,120)"/>
<path d="M0 0 C5.45860298 6.45107625 5 11.34760267 5 20 C-1.6 20 -8.2 20 -15 20 C-17 12 -17 12 -17 8 C-16.34 8 -15.68 8 -15 8 C-15 9.98 -15 11.96 -15 14 C-11.04 14 -7.08 14 -3 14 C-3 15.32 -3 16.64 -3 18 C-1.68 18 -0.36 18 1 18 C1 16.02 1 14.04 1 12 C0.34 12 -0.32 12 -1 12 C-0.51421457 8.87709365 -0.0013988 6.00419641 1 3 C0.34 2.67 -0.32 2.34 -1 2 C-0.67 1.34 -0.34 0.68 0 0 Z " fill="#EF5D21" transform="translate(163,36)"/>
<path d="M0 0 C1.06089844 0.00902344 2.12179688 0.01804687 3.21484375 0.02734375 C5.81013638 0.05072476 8.40494465 0.08349444 11 0.125 C11 0.455 11 0.785 11 1.125 C9.80375 1.41375 8.6075 1.7025 7.375 2 C4.7527432 2.64284602 2.35309274 3.36600466 -0.1875 4.3125 C-3.32662223 5.21935753 -4.86403561 4.76827475 -8 4.125 C-10.40084462 4.93472016 -10.40084462 4.93472016 -13 6.125 C-17.97647655 7.45206041 -22.98387452 8.58172357 -28.01953125 9.66015625 C-30.19145267 10.13821577 -30.19145267 10.13821577 -33 11.125 C-33 11.785 -33 12.445 -33 13.125 C-33.66 13.125 -34.32 13.125 -35 13.125 C-35 13.785 -35 14.445 -35 15.125 C-35.66 15.125 -36.32 15.125 -37 15.125 C-37 15.785 -37 16.445 -37 17.125 C-37.66 17.125 -38.32 17.125 -39 17.125 C-36.11998629 10.21296708 -28.67526229 6.18675276 -22.21484375 2.94921875 C-14.69693853 0.15155032 -7.95429185 -0.12941902 0 0 Z " fill="#F06C25" transform="translate(59,12.875)"/>
<path d="M0 0 C9.9 0 19.8 0 30 0 C30 1.32 30 2.64 30 4 C30.66 4 31.32 4 32 4 C32 4.66 32 5.32 32 6 C18.8 6 5.6 6 -8 6 C-8 5.34 -8 4.68 -8 4 C2.56 4 13.12 4 24 4 C24 3.34 24 2.68 24 2 C15.75 2 7.5 2 -1 2 C-0.67 1.34 -0.34 0.68 0 0 Z " fill="#F25604" transform="translate(104,122)"/>
<path d="M0 0 C0.99 0 1.98 0 3 0 C2 2 2 2 0 5 C0.31730524 8.63939932 0.31730524 8.63939932 1 12 C-0.32 12 -1.64 12 -3 12 C-3 34.44 -3 56.88 -3 80 C-3.33 80 -3.66 80 -4 80 C-4.77441527 66.7809114 -5.21287433 53.59382635 -5.24023438 40.3515625 C-5.25009014 37.47368009 -5.2813474 34.59647106 -5.3125 31.71875 C-5.37584614 20.63174589 -5.33423559 10.04295821 0 0 Z " fill="#FA8515" transform="translate(17,36)"/>
<path d="M0 0 C1.05833542 0.00424484 2.11667084 0.00848969 3.20707703 0.01286316 C6.57971887 0.02962513 9.9517582 0.06727363 13.32421875 0.10546875 C15.61392365 0.12051876 17.90363793 0.13420661 20.19335938 0.14648438 C25.79968395 0.17952052 31.40565829 0.22969558 37.01171875 0.29296875 C37.01171875 0.95296875 37.01171875 1.61296875 37.01171875 2.29296875 C21.38033455 3.71170054 5.68995651 3.38896399 -9.98828125 3.29296875 C-9.98828125 3.95296875 -9.98828125 4.61296875 -9.98828125 5.29296875 C-11.63828125 5.62296875 -13.28828125 5.95296875 -14.98828125 6.29296875 C-14.65828125 7.61296875 -14.32828125 8.93296875 -13.98828125 10.29296875 C-14.64828125 10.29296875 -15.30828125 10.29296875 -15.98828125 10.29296875 C-15.98828125 9.63296875 -15.98828125 8.97296875 -15.98828125 8.29296875 C-16.97828125 8.29296875 -17.96828125 8.29296875 -18.98828125 8.29296875 C-18.65828125 7.30296875 -18.32828125 6.31296875 -17.98828125 5.29296875 C-17.32828125 5.29296875 -16.66828125 5.29296875 -15.98828125 5.29296875 C-15.98828125 4.63296875 -15.98828125 3.97296875 -15.98828125 3.29296875 C-11.33489451 -0.8303567 -5.84532916 -0.0883753 0 0 Z " fill="#F67302" transform="translate(74.98828125,13.70703125)"/>
<path d="M0 0 C2 0 2 0 3.5 1.4375 C3.995 1.953125 4.49 2.46875 5 3 C5.66 3.33 6.32 3.66 7 4 C7.33 3.34 7.66 2.68 8 2 C9.32 2 10.64 2 12 2 C12.061875 2.94875 12.12375 3.8975 12.1875 4.875 C12.65027392 8.15893745 12.65027392 8.15893745 15.3125 9.375 C18.1894691 10.151009 18.1894691 10.151009 22 10 C21.67 11.65 21.34 13.3 21 15 C18.5625 15.9375 18.5625 15.9375 15 16 C9.15423702 12.6759387 3.76164019 7.59082993 0 2 C0 1.34 0 0.68 0 0 Z " fill="#F47114" transform="translate(18,128)"/>
<path d="M0 0 C-0.95117134 1.1725131 -1.91117009 2.33787015 -2.875 3.5 C-3.67550781 4.47453125 -3.67550781 4.47453125 -4.4921875 5.46875 C-4.98976562 5.9740625 -5.48734375 6.479375 -6 7 C-6.66 7 -7.32 7 -8 7 C-8 7.66 -8 8.32 -8 9 C-9.53125 10.25390625 -9.53125 10.25390625 -11.5 11.5625 C-12.68185318 12.35274707 -13.85287278 13.160139 -15 14 C-15 14.33 -15 14.66 -15 15 C-17.97 15.33 -20.94 15.66 -24 16 C-23.67 14.35 -23.34 12.7 -23 11 C-21.35 11 -19.7 11 -18 11 C-18 10.34 -18 9.68 -18 9 C-16.125 6.875 -16.125 6.875 -14 5 C-13.34 5 -12.68 5 -12 5 C-12 4.34 -12 3.68 -12 3 C-10.02 2.67 -8.04 2.34 -6 2 C-6 1.34 -6 0.68 -6 0 C-3.50907189 -1.24546405 -2.58919267 -0.7767578 0 0 Z " fill="#F4681E" transform="translate(162,129)"/>
<path d="M0 0 C2.4375 0.6875 2.4375 0.6875 5 2 C6.125 4.25 6.125 4.25 6 7 C2.58207552 12.58260999 -1.78978683 15.10425072 -8 17 C-11.5625 17.25 -11.5625 17.25 -14 17 C-11.02613333 13.77831111 -9.22786749 11.98650241 -5 11 C-3.36323743 9.0399719 -3.36323743 9.0399719 -2 7 C-1.34 6.67 -0.68 6.34 0 6 C-0.99 5.01 -1.98 4.02 -3 3 C-2.01 2.01 -1.02 1.02 0 0 Z " fill="#4D4A49" transform="translate(114,75)"/>
<path d="M0 0 C0.99 0 1.98 0 3 0 C3.25 6.625 3.25 6.625 1 10 C0.60986284 11.9896995 0.26797351 13.99019869 0 16 C-0.66 16 -1.32 16 -2 16 C-2 16.66 -2 17.32 -2 18 C-7.75 17.125 -7.75 17.125 -10 16 C-10.25 13.6875 -10.25 13.6875 -10 11 C-7.64139564 8.72563151 -4.95808458 7.37339641 -2 6 C-2 6.66 -2 7.32 -2 8 C-1.34 8 -0.68 8 0 8 C0 5.36 0 2.72 0 0 Z " fill="#F04615" transform="translate(144,110)"/>
<path d="M0 0 C0.99 0.66 1.98 1.32 3 2 C3 2.66 3 3.32 3 4 C8.28 4 13.56 4 19 4 C19 4.66 19 5.32 19 6 C19.99 6.33 20.98 6.66 22 7 C21.38479492 7.05534912 20.76958984 7.11069824 20.13574219 7.16772461 C17.34019004 7.42107482 14.54510238 7.67923694 11.75 7.9375 C10.78191406 8.02451172 9.81382813 8.11152344 8.81640625 8.20117188 C7.88183594 8.28818359 6.94726562 8.37519531 5.984375 8.46484375 C5.12553711 8.543396 4.26669922 8.62194824 3.38183594 8.70288086 C1.18358411 8.97709903 -0.86718545 9.41066966 -3 10 C-2.49287967 6.28111761 -1.88391785 3.26545761 0 0 Z " fill="#FB8808" transform="translate(45,34)"/>
<path d="M0 0 C11.88 0 23.76 0 36 0 C35.67 0.66 35.34 1.32 35 2 C34.09644775 2.02505615 33.19289551 2.0501123 32.26196289 2.07592773 C28.9203572 2.17087317 25.57893748 2.27011621 22.23754883 2.37231445 C20.7893576 2.4157163 19.34111346 2.45738744 17.89282227 2.49731445 C15.81510441 2.55489062 13.73765427 2.61862028 11.66015625 2.68359375 C10.40855713 2.72025146 9.15695801 2.75690918 7.86743164 2.79467773 C5.10369496 2.67803906 5.10369496 2.67803906 4 4 C2.65732587 4.08631874 1.31025678 4.10706473 -0.03515625 4.09765625 C-0.84404297 4.09443359 -1.65292969 4.09121094 -2.48632812 4.08789062 C-3.33646484 4.07951172 -4.18660156 4.07113281 -5.0625 4.0625 C-5.91650391 4.05798828 -6.77050781 4.05347656 -7.65039062 4.04882812 C-9.76695663 4.03700373 -11.88348685 4.01906769 -14 4 C-14 3.67 -14 3.34 -14 3 C-9.38 2.67 -4.76 2.34 0 2 C0 1.34 0 0.68 0 0 Z " fill="#F36410" transform="translate(99,120)"/>
<path d="M0 0 C2.8125 1.5625 2.8125 1.5625 5 3 C1.23375329 4.25541557 -0.37188934 3.37061958 -4 2 C-7.77473617 5.35022374 -8.404436 9.1412321 -9 14 C-9.22332188 19.0247424 -9.18943442 24.03413714 -9.125 29.0625 C-9.11494631 30.41861315 -9.1058247 31.77473355 -9.09765625 33.13085938 C-9.07424058 36.420761 -9.04144423 39.71028438 -9 43 C-9.33 43 -9.66 43 -10 43 C-10.76461401 33.59251688 -11.16952643 24.18700019 -11.3125 14.75 C-11.34214844 13.75025146 -11.37179688 12.75050293 -11.40234375 11.72045898 C-11.46039389 4.63410952 -11.46039389 4.63410952 -9.10546875 1.390625 C-5.51231532 -0.98258951 -4.17718059 -1.16572481 0 0 Z " fill="#251E1C" transform="translate(80,53)"/>
<path d="M0 0 C0.66 0 1.32 0 2 0 C2 1.65 2 3.3 2 5 C2.66 5 3.32 5 4 5 C4.33 3.68 4.66 2.36 5 1 C9 6.75 9 6.75 9 9 C9.66 9 10.32 9 11 9 C12.5078125 10.75 12.5078125 10.75 14.125 13 C14.66382812 13.7425 15.20265625 14.485 15.7578125 15.25 C16.16773437 15.8275 16.57765625 16.405 17 17 C14.9607899 15.98678079 12.93673964 14.96549435 10.9375 13.875 C8.89863452 12.79420664 8.89863452 12.79420664 6 13 C6 12.34 6 11.68 6 11 C5.071875 10.7834375 5.071875 10.7834375 4.125 10.5625 C0.64224101 9.64059321 0.10104083 9.15156125 -2 6 C-1.45945946 1.45945946 -1.45945946 1.45945946 0 0 Z " fill="#F4570A" transform="translate(42,127)"/>
<path d="M0 0 C2.14255793 -0.38932856 2.14255793 -0.38932856 4 -1 C6 2 6 2 6 6 C3.03 6 0.06 6 -3 6 C-3 6.66 -3 7.32 -3 8 C-4.98 8 -6.96 8 -9 8 C-9 7.34 -9 6.68 -9 6 C-7.68 6 -6.36 6 -5 6 C-5 4.68 -5 3.36 -5 2 C-5.66 2 -6.32 2 -7 2 C-7 1.34 -7 0.68 -7 0 C-3.98968256 -0.93423645 -3.13349732 -1.04449911 0 0 Z " fill="#F64D16" transform="translate(137,32)"/>
<path d="M0 0 C1.32789551 -0.01353516 1.32789551 -0.01353516 2.68261719 -0.02734375 C3.92833496 -0.02154297 3.92833496 -0.02154297 5.19921875 -0.015625 C5.94389404 -0.01336914 6.68856934 -0.01111328 7.45581055 -0.00878906 C9.3125 0.25 9.3125 0.25 11.3125 2.25 C9.38083984 2.34087891 9.38083984 2.34087891 7.41015625 2.43359375 C5.73175841 2.51798247 4.05337364 2.6026313 2.375 2.6875 C1.09979492 2.74647461 1.09979492 2.74647461 -0.20117188 2.80664062 C-1.01005859 2.84853516 -1.81894531 2.89042969 -2.65234375 2.93359375 C-3.4012085 2.97025146 -4.15007324 3.00690918 -4.92163086 3.04467773 C-6.71211326 3.06771063 -6.71211326 3.06771063 -7.6875 4.25 C-10.38404854 4.32319621 -13.05441458 4.34242537 -15.75 4.3125 C-16.50861328 4.30798828 -17.26722656 4.30347656 -18.04882812 4.29882812 C-19.92841871 4.2870068 -21.80796899 4.26907078 -23.6875 4.25 C-23.6875 3.59 -23.6875 2.93 -23.6875 2.25 C-15.75466373 0.6286904 -8.07980275 0.03483925 0 0 Z " fill="#F37D08" transform="translate(71.6875,121.75)"/>
<path d="M0 0 C-3 2 -3 2 -6.0625 3.5625 C-10.05573931 6.87603901 -10.38152121 10.00951599 -11 15 C-11.33 15 -11.66 15 -12 15 C-12.33 22.59 -12.66 30.18 -13 38 C-13.33 38 -13.66 38 -14 38 C-14.08767743 33.50012438 -14.14062009 29.000471 -14.1875 24.5 C-14.21263672 23.2315625 -14.23777344 21.963125 -14.26367188 20.65625 C-14.31773621 13.73601475 -14.18411656 8.21588304 -11 2 C-7.44616203 -0.3051922 -4.16125395 -0.1935467 0 0 Z " fill="#E3661B" transform="translate(52,42)"/>
<path d="M0 0 C7.21764783 5.15546274 11.70780925 12.44042284 14 21 C14.35419421 23.95452352 14.50409681 26.9027966 14.625 29.875 C14.66367188 30.65875 14.70234375 31.4425 14.7421875 32.25 C14.83566622 34.16631367 14.91888495 36.08312319 15 38 C14.01 38.495 14.01 38.495 13 39 C12.96261719 37.96101563 12.92523438 36.92203125 12.88671875 35.8515625 C12.53207428 27.83986525 11.89460661 20.57331038 9 13 C8.34 13 7.68 13 7 13 C7 11.68 7 10.36 7 9 C6.34 9 5.68 9 5 9 C3.6273318 7.02678947 2.29572383 5.02456848 1 3 C0.34 2.34 -0.32 1.68 -1 1 C-0.67 0.67 -0.34 0.34 0 0 Z " fill="#B3502B" transform="translate(155,23)"/>
<path d="M0 0 C1.65 0 3.3 0 5 0 C4.67 0.99 4.34 1.98 4 3 C4.33 3.99 4.66 4.98 5 6 C5.99 6.33 6.98 6.66 8 7 C8.33 7.66 8.66 8.32 9 9 C11.02463255 9.65213292 11.02463255 9.65213292 13 10 C13 10.66 13 11.32 13 12 C14.32 12.33 15.64 12.66 17 13 C17 13.99 17 14.98 17 16 C14.875 16.375 14.875 16.375 12 16 C9.70260359 14.25677649 7.73666661 12.30361963 6 10 C6 9.34 6 8.68 6 8 C5.34 8 4.68 8 4 8 C0 2.58823529 0 2.58823529 0 0 Z " fill="#FA8211" transform="translate(47,128)"/>
<path d="M0 0 C0.66 0 1.32 0 2 0 C2 2.97 2 5.94 2 9 C1.67 8.34 1.34 7.68 1 7 C0.01 7 -0.98 7 -2 7 C-2 9.64 -2 12.28 -2 15 C-3.32 15 -4.64 15 -6 15 C-8.01495907 15.61998741 -10.0187415 16.27954236 -12 17 C-10.6875 15 -10.6875 15 -9 13 C-8.01 13 -7.02 13 -6 13 C-5.34 10.36 -4.68 7.72 -4 5 C-3.34 5 -2.68 5 -2 5 C-1.855625 4.360625 -1.71125 3.72125 -1.5625 3.0625 C-1 1 -1 1 0 0 Z " fill="#EF5423" transform="translate(146,103)"/>
<path d="M0 0 C8.10816336 0.45045352 14.29348305 3.5289887 21 8 C21 8.66 21 9.32 21 10 C20.01 10 19.02 10 18 10 C18 9.34 18 8.68 18 8 C16.68 8 15.36 8 14 8 C14 7.34 14 6.68 14 6 C13.175 6.0825 12.35 6.165 11.5 6.25 C6.98696153 5.92764011 3.88204944 4.20705349 0 2 C0 1.34 0 0.68 0 0 Z " fill="#E7782D" transform="translate(134,14)"/>
<path d="M0 0 C0.9075 0.61875 1.815 1.2375 2.75 1.875 C6.31573913 4.20644482 8.80179414 4.66414353 13 5 C13 5.66 13 6.32 13 7 C7.72 7 2.44 7 -3 7 C-3 5.02 -3 3.04 -3 1 C-2.01 0.67 -1.02 0.34 0 0 Z " fill="#F25D26" transform="translate(51,139)"/>
<path d="M0 0 C1.32 0 2.64 0 4 0 C4 0.66 4 1.32 4 2 C5.32 2 6.64 2 8 2 C8 2.66 8 3.32 8 4 C8.66 4 9.32 4 10 4 C10 3.01 10 2.02 10 1 C11.32 1.66 12.64 2.32 14 3 C14 4.32 14 5.64 14 7 C9.94568308 8.15837626 7.78187881 7.83691257 4 6 C4 5.34 4 4.68 4 4 C3.34 4 2.68 4 2 4 C2 3.34 2 2.68 2 2 C1.34 2 0.68 2 0 2 C0 1.34 0 0.68 0 0 Z " fill="#EB6828" transform="translate(144,24)"/>
<path d="M0 0 C0.99 0.33 1.98 0.66 3 1 C3 2.65 3 4.3 3 6 C2.34 6 1.68 6 1 6 C1 6.66 1 7.32 1 8 C1.66 8.33 2.32 8.66 3 9 C1.72125 9.144375 0.4425 9.28875 -0.875 9.4375 C-3.25692894 9.70642746 -4.84452691 9.92226346 -7 11 C-5.5140084 6.40693504 -3.14985318 3.56430755 0 0 Z " fill="#F88309" transform="translate(53,23)"/>
<path d="M0 0 C0.98291016 0.00644531 1.96582031 0.01289063 2.97851562 0.01953125 C4.00267578 0.03628906 5.02683594 0.05304687 6.08203125 0.0703125 C7.11779297 0.07933594 8.15355469 0.08835937 9.22070312 0.09765625 C11.7788781 0.1212339 14.33658873 0.1541422 16.89453125 0.1953125 C16.89453125 0.5253125 16.89453125 0.8553125 16.89453125 1.1953125 C7.48953125 1.6903125 7.48953125 1.6903125 -2.10546875 2.1953125 C-2.10546875 2.8553125 -2.10546875 3.5153125 -2.10546875 4.1953125 C-3.75546875 4.5253125 -5.40546875 4.8553125 -7.10546875 5.1953125 C-6.77546875 6.5153125 -6.44546875 7.8353125 -6.10546875 9.1953125 C-6.76546875 9.1953125 -7.42546875 9.1953125 -8.10546875 9.1953125 C-8.10546875 8.5353125 -8.10546875 7.8753125 -8.10546875 7.1953125 C-9.09546875 7.1953125 -10.08546875 7.1953125 -11.10546875 7.1953125 C-10.77546875 6.2053125 -10.44546875 5.2153125 -10.10546875 4.1953125 C-9.44546875 4.1953125 -8.78546875 4.1953125 -8.10546875 4.1953125 C-8.10546875 3.5353125 -8.10546875 2.8753125 -8.10546875 2.1953125 C-4.80258539 -0.00660974 -3.83084148 -0.04428718 0 0 Z " fill="#FA7F14" transform="translate(67.10546875,14.8046875)"/>
<path d="M0 0 C1.32 0.66 2.64 1.32 4 2 C-3.4299569 9.85452586 -3.4299569 9.85452586 -9.3125 10.1875 C-10.6428125 10.0946875 -10.6428125 10.0946875 -12 10 C-9.02613333 6.77831111 -7.22786749 4.98650241 -3 4 C-1.24577228 2.02329393 -1.24577228 2.02329393 0 0 Z " fill="#5E5D5D" transform="translate(112,82)"/>
<path d="M0 0 C0.886875 0.969375 1.77375 1.93875 2.6875 2.9375 C7.70863639 7.34655572 13.60090429 6.9807546 20 7 C20 7.33 20 7.66 20 8 C10.595 8.495 10.595 8.495 1 9 C-1.25 3.375 -1.25 3.375 0 0 Z " fill="#ED9416" transform="translate(41,111)"/>
<path d="M0 0 C4.95 0 9.9 0 15 0 C15 1.32 15 2.64 15 4 C8.73 4 2.46 4 -4 4 C-4 3.67 -4 3.34 -4 3 C-0.535 2.505 -0.535 2.505 3 2 C2.01 1.34 1.02 0.68 0 0 Z " fill="#F95517" transform="translate(149,58)"/>
<path d="M0 0 C5.94 0 11.88 0 18 0 C18 1.65 18 3.3 18 5 C13.17479555 5.33664217 11.05181177 4.47061693 7 2 C3.30476048 1.28076792 3.30476048 1.28076792 0 1 C0 0.67 0 0.34 0 0 Z " fill="#F6662E" transform="translate(150,101)"/>
<path d="M0 0 C7.59 0 15.18 0 23 0 C23 0.33 23 0.66 23 1 C21.01432292 1.48828125 19.02864583 1.9765625 17.04296875 2.46484375 C15.34316798 2.91010705 13.66698046 3.44433985 12 4 C12 3.34 12 2.68 12 2 C7.71 2 3.42 2 -1 2 C-0.67 1.34 -0.34 0.68 0 0 Z " fill="#DA5F1C" transform="translate(47,13)"/>
<path d="M0 0 C0.66 0 1.32 0 2 0 C2 1.65 2 3.3 2 5 C1.01 5.33 0.02 5.66 -1 6 C-1.99310092 7.89022066 -1.99310092 7.89022066 -2.625 10.1875 C-2.87121094 10.99445312 -3.11742187 11.80140625 -3.37109375 12.6328125 C-4.10707723 15.40303604 -4.63553309 18.15715807 -5 21 C-5.66 21 -6.32 21 -7 21 C-6.72876813 12.86304398 -3.91083499 7.06820635 0 0 Z " fill="#DD7E22" transform="translate(18,31)"/>
<path d="M0 0 C0.33 0 0.66 0 1 0 C1.05416188 1.60379341 1.09286638 3.20811406 1.125 4.8125 C1.14820313 5.70582031 1.17140625 6.59914063 1.1953125 7.51953125 C1 10 1 10 -1 13 C-3.85229832 14.95157254 -6.51509178 16.63949225 -10 17 C-10.66 16.34 -11.32 15.68 -12 15 C-10.9275 14.649375 -9.855 14.29875 -8.75 13.9375 C-4.20114546 11.9945682 -2.99474017 9.449805 -1 5 C-0.22514168 2.22861403 -0.22514168 2.22861403 0 0 Z " fill="#E05F34" transform="translate(141,103)"/>
<path d="M0 0 C0.99 0 1.98 0 3 0 C3.2954439 5.02254631 2.98514628 7.89542386 0 12 C-1.32 11.67 -2.64 11.34 -4 11 C-3.67 9.35 -3.34 7.7 -3 6 C-2.67 6.66 -2.34 7.32 -2 8 C-1.34 8 -0.68 8 0 8 C0 5.36 0 2.72 0 0 Z " fill="#DF4417" transform="translate(144,110)"/>
<path d="M0 0 C0.66 0 1.32 0 2 0 C3.34331654 1.99330842 4.67594012 3.99384866 6 6 C6.99 6.66 7.98 7.32 9 8 C9 8.66 9 9.32 9 10 C9.928125 10.268125 10.85625 10.53625 11.8125 10.8125 C14.76240366 11.91148371 16.05615186 12.62418561 18 15 C17.01 15.33 16.02 15.66 15 16 C9.20588476 12.64493136 3.74689188 7.56890989 0 2 C0 1.34 0 0.68 0 0 Z " fill="#D2671A" transform="translate(18,128)"/>
<path d="M0 0 C0.66 0.33 1.32 0.66 2 1 C-3.18238836 7.17807871 -7.89140066 12.12258218 -15 16 C-15.33 15.34 -15.66 14.68 -16 14 C-10.25 10 -10.25 10 -8 10 C-8 9.34 -8 8.68 -8 8 C-7.34 8 -6.68 8 -6 8 C-5.34 6.68 -4.68 5.36 -4 4 C-3.34 4 -2.68 4 -2 4 C-1.34 2.68 -0.68 1.36 0 0 Z " fill="#C55B1E" transform="translate(162,128)"/>
<path d="M0 0 C2.8125 1.5625 2.8125 1.5625 5 3 C2 4 2 4 -0.9375 2.9375 C-3.8728134 1.73018662 -3.8728134 1.73018662 -6.3125 2.6875 C-8.30335167 3.98555468 -8.30335167 3.98555468 -9 7 C-9.66 7 -10.32 7 -11 7 C-10.4360709 3.72921124 -9.54319569 2.13628438 -7 0 C-4.24779828 -1.37610086 -2.93781238 -0.81985462 0 0 Z " fill="#160F08" transform="translate(80,53)"/>
<path d="M0 0 C0.8971875 0.309375 0.8971875 0.309375 1.8125 0.625 C1.1525 0.625 0.4925 0.625 -0.1875 0.625 C-0.1875 1.285 -0.1875 1.945 -0.1875 2.625 C-1.5075 2.625 -2.8275 2.625 -4.1875 2.625 C-4.1875 3.285 -4.1875 3.945 -4.1875 4.625 C-6.1675 5.285 -8.1475 5.945 -10.1875 6.625 C-10.1875 7.285 -10.1875 7.945 -10.1875 8.625 C-10.8475 8.625 -11.5075 8.625 -12.1875 8.625 C-12.1875 9.285 -12.1875 9.945 -12.1875 10.625 C-12.8475 10.625 -13.5075 10.625 -14.1875 10.625 C-14.1875 11.285 -14.1875 11.945 -14.1875 12.625 C-14.8475 12.625 -15.5075 12.625 -16.1875 12.625 C-14.72392507 9.033308 -12.83656849 7.30098866 -9.75 5 C-8.96753906 4.40960937 -8.18507813 3.81921875 -7.37890625 3.2109375 C-2.37866978 -0.40777196 -2.37866978 -0.40777196 0 0 Z " fill="#D6702B" transform="translate(36.1875,17.375)"/>
<path d="M0 0 C0.66 0 1.32 0 2 0 C2 0.66 2 1.32 2 2 C2.66 2 3.32 2 4 2 C4 2.66 4 3.32 4 4 C4.66 4 5.32 4 6 4 C6 4.66 6 5.32 6 6 C4.35 6.33 2.7 6.66 1 7 C0.67 7.99 0.34 8.98 0 10 C-0.66 10 -1.32 10 -2 10 C-2 8.02 -2 6.04 -2 4 C-1.34 4 -0.68 4 0 4 C0 2.68 0 1.36 0 0 Z " fill="#F15D20" transform="translate(34,112)"/>
<path d="M0 0 C3.48539917 0.64544429 6.02819057 2.10134397 9 4 C7 6 7 6 3.875 6.125 C2.451875 6.063125 2.451875 6.063125 1 6 C0.67 4.02 0.34 2.04 0 0 Z " fill="#4B4B4B" transform="translate(97,66)"/>
<path d="M0 0 C3.3 0 6.6 0 10 0 C10.33 1.32 10.66 2.64 11 4 C10.34 4 9.68 4 9 4 C9 4.66 9 5.32 9 6 C8.34 6 7.68 6 7 6 C6.34 5.01 5.68 4.02 5 3 C2.43717258 2.27034634 2.43717258 2.27034634 0 2 C0 1.34 0 0.68 0 0 Z " fill="#F55F03" transform="translate(31,30)"/>
<path d="M0 0 C3.63 0 7.26 0 11 0 C10.67 1.65 10.34 3.3 10 5 C6.05140217 4.4359146 3.29120954 3.2568294 0 1 C0 0.67 0 0.34 0 0 Z " fill="#F4681C" transform="translate(29,138)"/>
<path d="M0 0 C0.99 0 1.98 0 3 0 C5.29633824 3.44450737 5.54016485 5.93812283 6 10 C5.01 10 4.02 10 3 10 C3 8.68 3 7.36 3 6 C2.34 6 1.68 6 1 6 C1 5.34 1 4.68 1 4 C0.34 4 -0.32 4 -1 4 C-0.67 2.68 -0.34 1.36 0 0 Z " fill="#F95419" transform="translate(137,40)"/>
<path d="M0 0 C0.66 0.66 1.32 1.32 2 2 C1.01 2.495 1.01 2.495 0 3 C-0.65555119 5.52733235 -0.65555119 5.52733235 -1 8 C-2.98 8.66 -4.96 9.32 -7 10 C-7 9.01 -7 8.02 -7 7 C-6.360625 6.7525 -5.72125 6.505 -5.0625 6.25 C-2.80939427 5.19851273 -2.80939427 5.19851273 -2.375 2.9375 C-2.189375 1.9784375 -2.189375 1.9784375 -2 1 C-1.34 0.67 -0.68 0.34 0 0 Z " fill="#3D3B3B" transform="translate(97,90)"/>
<path d="M0 0 C4.5076467 0.53031138 7.41954788 2.25221116 11 5 C11 5.66 11 6.32 11 7 C10.01 7 9.02 7 8 7 C8 6.34 8 5.68 8 5 C6.68 5 5.36 5 4 5 C4 4.34 4 3.68 4 3 C2.35 3 0.7 3 -1 3 C-0.67 2.01 -0.34 1.02 0 0 Z " fill="#CF7439" transform="translate(144,17)"/>
<path d="M0 0 C2.42130331 2.42130331 2.52840504 3.80111377 3.125 7.125 C3.29257813 8.03507812 3.46015625 8.94515625 3.6328125 9.8828125 C3.81457031 10.93082031 3.81457031 10.93082031 4 12 C2.68 12.33 1.36 12.66 0 13 C0 11.68 0 10.36 0 9 C-0.66 8.67 -1.32 8.34 -2 8 C-1.01 8 -0.02 8 1 8 C0.67 5.36 0.34 2.72 0 0 Z " fill="#E44712" transform="translate(143,38)"/>
<path d="M0 0 C0.99 0.33 1.98 0.66 3 1 C5.14255793 0.61067144 5.14255793 0.61067144 7 0 C9 3 9 3 9 7 C8.34 7 7.68 7 7 7 C6.67 6.01 6.34 5.02 6 4 C3.03 3.505 3.03 3.505 0 3 C0 2.01 0 1.02 0 0 Z " fill="#E94B0F" transform="translate(134,31)"/>
<path d="M0 0 C1.32 0 2.64 0 4 0 C4 0.66 4 1.32 4 2 C5.32 2 6.64 2 8 2 C8 3.32 8 4.64 8 6 C6.68 6 5.36 6 4 6 C4 5.34 4 4.68 4 4 C3.34 4 2.68 4 2 4 C2 3.34 2 2.68 2 2 C1.34 2 0.68 2 0 2 C0 1.34 0 0.68 0 0 Z " fill="#EA631C" transform="translate(144,24)"/>
<path d="M0 0 C-2.25 2.5625 -2.25 2.5625 -5 5 C-7.3125 4.8125 -7.3125 4.8125 -9 4 C-8.67 3.34 -8.34 2.68 -8 2 C-7.34 2 -6.68 2 -6 2 C-6 1.34 -6 0.68 -6 0 C-3.50907189 -1.24546405 -2.58919267 -0.7767578 0 0 Z " fill="#EE642C" transform="translate(162,129)"/>
<path d="M0 0 C-0.99 0.66 -1.98 1.32 -3 2 C-4.010625 2.70125 -5.02125 3.4025 -6.0625 4.125 C-9 6 -9 6 -11 6 C-11 4.68 -11 3.36 -11 2 C-7.17010894 0.19769832 -4.21878192 -0.19622241 0 0 Z " fill="#DF8F2C" transform="translate(52,42)"/>
<path d="M0 0 C0.99 0 1.98 0 3 0 C3 3.3 3 6.6 3 10 C2.34 10 1.68 10 1 10 C1 8.02 1 6.04 1 4 C0.34 4 -0.32 4 -1 4 C-0.67 2.68 -0.34 1.36 0 0 Z " fill="#F86003" transform="translate(35,44)"/>
<path d="M0 0 C1.32 0 2.64 0 4 0 C4 1.32 4 2.64 4 4 C3.34 4 2.68 4 2 4 C1.67 4.99 1.34 5.98 1 7 C0.01 6.67 -0.98 6.34 -2 6 C-2 5.34 -2 4.68 -2 4 C-1.34 4 -0.68 4 0 4 C0 2.68 0 1.36 0 0 Z " fill="#F06109" transform="translate(146,130)"/>
<path d="M0 0 C1.65 0 3.3 0 5 0 C5 1.98 5 3.96 5 6 C3.35 5.67 1.7 5.34 0 5 C0 3.35 0 1.7 0 0 Z " fill="#EA5023" transform="translate(142,50)"/>
<path d="M0 0 C1.65 0 3.3 0 5 0 C5.33 1.32 5.66 2.64 6 4 C3.69 4 1.38 4 -1 4 C-0.67 2.68 -0.34 1.36 0 0 Z " fill="#F24823" transform="translate(135,34)"/>
<path d="M0 0 C0.99 0 1.98 0 3 0 C3 0.66 3 1.32 3 2 C3.66 2 4.32 2 5 2 C5 3.32 5 4.64 5 6 C5.66 6 6.32 6 7 6 C7 8.31 7 10.62 7 13 C6.72414062 12.43796875 6.44828125 11.8759375 6.1640625 11.296875 C4.95631972 8.91381206 3.67823191 6.5820992 2.375 4.25 C1.92898437 3.45078125 1.48296875 2.6515625 1.0234375 1.828125 C0.68570313 1.22484375 0.34796875 0.6215625 0 0 Z " fill="#CA5327" transform="translate(135,44)"/>
<path d="M0 0 C5.625 -0.25 5.625 -0.25 9 2 C8.01 2.99 7.02 3.98 6 5 C4.02 4.01 2.04 3.02 0 2 C0 1.34 0 0.68 0 0 Z " fill="#D95220" transform="translate(128,40)"/>
<path d="M0 0 C0.99 0.33 1.98 0.66 3 1 C2.34 1 1.68 1 1 1 C1 2.32 1 3.64 1 5 C-0.65 5.33 -2.3 5.66 -4 6 C-2.84826645 3.53199953 -1.95216435 1.95216435 0 0 Z M-5 6 C-5 9 -5 9 -5 9 Z " fill="#FC7C18" transform="translate(53,23)"/>
<path d="M0 0 C2.72574271 0.37330824 3.80822085 0.79194601 5.703125 2.84765625 C6.21359375 3.57855469 6.7240625 4.30945313 7.25 5.0625 C8.03117187 6.16271484 8.03117187 6.16271484 8.828125 7.28515625 C9.21484375 7.85105469 9.6015625 8.41695312 10 9 C7.50638429 7.79618552 5.31856917 6.54571278 3 5 C3 4.34 3 3.68 3 3 C2.34 3 1.68 3 1 3 C0.67 2.01 0.34 1.02 0 0 Z " fill="#E55708" transform="translate(49,135)"/>
<path d="M0 0 C1 3 1 3 0 6 C-1.98 6 -3.96 6 -6 6 C-4 4 -2 2 0 0 Z " fill="#514D4E" transform="translate(106,86)"/>
<path d="M0 0 C1.98 0.495 1.98 0.495 4 1 C4.33 2.32 4.66 3.64 5 5 C3.02 5.33 1.04 5.66 -1 6 C-0.67 4.02 -0.34 2.04 0 0 Z " fill="#272725" transform="translate(81,57)"/>
<path d="M0 0 C0.99 0.33 1.98 0.66 3 1 C1.12050295 4.57104439 -0.17053157 6.54744301 -4 8 C-3 5 -3 5 -2 3 C-1.34 3 -0.68 3 0 3 C0 2.01 0 1.02 0 0 Z " fill="#F17514" transform="translate(22,32)"/>
<path d="M0 0 C2.97 0 5.94 0 9 0 C9.33 0.66 9.66 1.32 10 2 C9.34 2.66 8.68 3.32 8 4 C5.36 3.01 2.72 2.02 0 1 C0 0.67 0 0.34 0 0 Z " fill="#FE7D25" transform="translate(119,15)"/>
<path d="M0 0 C4.95 0.33 9.9 0.66 15 1 C15 1.33 15 1.66 15 2 C10.05 2.33 5.1 2.66 0 3 C0 2.01 0 1.02 0 0 Z " fill="#EA912F" transform="translate(46,117)"/>
<path d="M0 0 C0.33 0 0.66 0 1 0 C1 3.3 1 6.6 1 10 C-0.32 10.33 -1.64 10.66 -3 11 C-2.01 7.37 -1.02 3.74 0 0 Z " fill="#D05A33" transform="translate(141,103)"/>
<path d="M0 0 C0.99 0 1.98 0 3 0 C3 2.31 3 4.62 3 7 C2.01 7.495 2.01 7.495 1 8 C0.67 5.36 0.34 2.72 0 0 Z " fill="#E54C1C" transform="translate(144,110)"/>
<path d="M0 0 C0.93065133 2.60582371 1.14917407 3.64198224 0.0625 6.25 C-0.4634375 7.11625 -0.4634375 7.11625 -1 8 C-0.34 8.33 0.32 8.66 1 9 C-0.32 9.33 -1.64 9.66 -3 10 C-2.49287967 6.28111761 -1.88391785 3.26545761 0 0 Z " fill="#FC8C1D" transform="translate(45,34)"/>
<path d="M0 0 C3.63 0 7.26 0 11 0 C11 0.66 11 1.32 11 2 C7.65820721 3.11393093 6.35008877 2.75376997 3 2 C2.01 2 1.02 2 0 2 C0 1.34 0 0.68 0 0 Z " fill="#FD7128" transform="translate(48,15)"/>
<path d="M0 0 C1.2065625 0.0309375 1.2065625 0.0309375 2.4375 0.0625 C2.4375 0.7225 2.4375 1.3825 2.4375 2.0625 C3.0975 2.3925 3.7575 2.7225 4.4375 3.0625 C3.1175 3.3925 1.7975 3.7225 0.4375 4.0625 C0.4375 3.4025 0.4375 2.7425 0.4375 2.0625 C-0.8825 1.7325 -2.2025 1.4025 -3.5625 1.0625 C-2.5625 0.0625 -2.5625 0.0625 0 0 Z " fill="#F25418" transform="translate(47.5625,135.9375)"/>
<path d="M0 0 C1.32 0 2.64 0 4 0 C4 1.98 4 3.96 4 6 C3.34 6 2.68 6 2 6 C1.34 4.02 0.68 2.04 0 0 Z " fill="#FD8321" transform="translate(42,120)"/>
<path d="M0 0 C-0.9590625 0.6496875 -0.9590625 0.6496875 -1.9375 1.3125 C-4.26746003 2.91239177 -4.26746003 2.91239177 -5 6 C-5.66 6 -6.32 6 -7 6 C-7 4.35 -7 2.7 -7 1 C-4.53721199 -0.231394 -2.7204945 -0.07159196 0 0 Z " fill="#F65D37" transform="translate(149,102)"/>
<path d="M0 0 C0 0.66 0 1.32 0 2 C-1.53125 3.2890625 -1.53125 3.2890625 -3.5 4.625 C-4.1496875 5.07101563 -4.799375 5.51703125 -5.46875 5.9765625 C-5.9740625 6.31429688 -6.479375 6.65203125 -7 7 C-6.2421875 3.21875 -6.2421875 3.21875 -4.0625 1.25 C-2 0 -2 0 0 0 Z " fill="#E55B0C" transform="translate(59,17)"/>
<path d="M0 0 C0.66 0 1.32 0 2 0 C1.375 1.875 1.375 1.875 0 4 C-3.125 5.25 -3.125 5.25 -6 6 C-4.6875 4 -4.6875 4 -3 2 C-2.01 2 -1.02 2 0 2 C0 1.34 0 0.68 0 0 Z " fill="#FB592A" transform="translate(140,114)"/>
<path d="M0 0 C1.32 0 2.64 0 4 0 C3.34 1.98 2.68 3.96 2 6 C1.34 6 0.68 6 0 6 C0 4.02 0 2.04 0 0 Z " fill="#F36014" transform="translate(32,116)"/>
</svg>
